<svg width="121" height="30" viewBox="0 0 121 30" fill="none" xmlns="http://www.w3.org/2000/svg">
<path d="M43.478 9.61377L38.366 17.5878V21.2598H35.954V17.5878L30.842 9.61377H33.614L37.916 16.5798H36.476L40.706 9.61377H43.478ZM48.4028 21.4758C47.2748 21.4758 46.2788 21.2958 45.4148 20.9358C44.5628 20.5758 43.8968 20.0538 43.4168 19.3698C42.9368 18.6738 42.6968 17.8218 42.6968 16.8138C42.6968 15.8058 42.9368 14.9538 43.4168 14.2578C43.8968 13.5498 44.5628 13.0158 45.4148 12.6558C46.2788 12.2958 47.2748 12.1158 48.4028 12.1158C49.5308 12.1158 50.5148 12.2958 51.3548 12.6558C52.2068 13.0158 52.8728 13.5498 53.3528 14.2578C53.8328 14.9538 54.0728 15.8058 54.0728 16.8138C54.0728 17.8218 53.8328 18.6738 53.3528 19.3698C52.8728 20.0538 52.2068 20.5758 51.3548 20.9358C50.5148 21.2958 49.5308 21.4758 48.4028 21.4758ZM48.4028 19.6758C49.0268 19.6758 49.5848 19.5678 50.0768 19.3518C50.5808 19.1238 50.9768 18.7998 51.2648 18.3798C51.5528 17.9478 51.6968 17.4258 51.6968 16.8138C51.6968 16.2018 51.5528 15.6798 51.2648 15.2478C50.9768 14.8038 50.5868 14.4678 50.0948 14.2398C49.6028 14.0118 49.0388 13.8978 48.4028 13.8978C47.7788 13.8978 47.2148 14.0118 46.7108 14.2398C46.2068 14.4678 45.8048 14.7978 45.5048 15.2298C45.2168 15.6618 45.0728 16.1898 45.0728 16.8138C45.0728 17.4258 45.2168 17.9478 45.5048 18.3798C45.7928 18.7998 46.1888 19.1238 46.6928 19.3518C47.1968 19.5678 47.7668 19.6758 48.4028 19.6758ZM66.1527 21.2598H63.8127V12.3138H66.1527V21.2598ZM63.9387 16.9578L63.9567 17.5698C63.9327 17.7378 63.8727 17.9838 63.7767 18.3078C63.6807 18.6198 63.5307 18.9558 63.3267 19.3158C63.1347 19.6758 62.8827 20.0238 62.5707 20.3598C62.2587 20.6838 61.8747 20.9538 61.4187 21.1698C60.9627 21.3738 60.4227 21.4758 59.7987 21.4758C59.3067 21.4758 58.8207 21.4158 58.3407 21.2958C57.8727 21.1758 57.4467 20.9778 57.0627 20.7018C56.6787 20.4138 56.3727 20.0298 56.1447 19.5498C55.9167 19.0698 55.8027 18.4638 55.8027 17.7318V12.3138H58.1427V17.3358C58.1427 17.9118 58.2327 18.3678 58.4127 18.7038C58.6047 19.0278 58.8807 19.2558 59.2407 19.3878C59.6007 19.5198 60.0267 19.5858 60.5187 19.5858C61.1667 19.5858 61.7247 19.4478 62.1927 19.1718C62.6607 18.8838 63.0387 18.5358 63.3267 18.1278C63.6267 17.7198 63.8307 17.3298 63.9387 16.9578ZM68.2831 12.3138H70.6231V21.2598H68.2831V12.3138ZM74.0611 14.2398C73.3891 14.2398 72.8071 14.3718 72.3151 14.6358C71.8231 14.8878 71.4271 15.1998 71.1271 15.5718C70.8271 15.9438 70.6171 16.3038 70.4971 16.6518L70.4791 15.6618C70.4911 15.5178 70.5391 15.3078 70.6231 15.0318C70.7071 14.7438 70.8331 14.4378 71.0011 14.1138C71.1691 13.7778 71.3911 13.4598 71.6671 13.1598C71.9431 12.8478 72.2791 12.5958 72.6751 12.4038C73.0711 12.2118 73.5331 12.1158 74.0611 12.1158V14.2398Z" fill="#1341EC"/>
<path d="M84.9043 9.30664L84.2188 14.457L83.208 10.6953L80.5098 11.0029L80.8701 19.7832L83.0498 20.8994L76.0273 21.5674L78.585 19.7129L79.0332 11.0908L76.2471 10.9854L75.166 14.1846L74.8232 9.45605L84.9043 9.30664ZM91.6367 15.2656C91.584 15.0488 91.5078 14.8643 91.4082 14.7119C91.3145 14.5596 91.2061 14.4336 91.083 14.334C90.9658 14.2285 90.8398 14.1494 90.7051 14.0967C90.5703 14.0381 90.4355 13.9941 90.3008 13.9648C89.9844 13.9004 89.6475 13.9033 89.29 13.9736C89.167 14.0146 89.0352 14.0791 88.8945 14.167C88.7715 14.249 88.6309 14.3604 88.4727 14.501C88.3145 14.6357 88.1445 14.8174 87.9629 15.0459L88.1211 20.1436L89.7031 20.9346L85.0449 21.3477L86.249 20.126L86.7412 14.0088L84.8691 13.1562L87.8926 12.585L87.9277 13.6836C88.1328 13.4375 88.3438 13.2354 88.5605 13.0771C88.7773 12.9189 88.9736 12.79 89.1494 12.6904C89.3545 12.5791 89.5537 12.4941 89.7471 12.4355C90.0986 12.3535 90.4561 12.3213 90.8193 12.3389C90.9717 12.3447 91.1299 12.3623 91.2939 12.3916C91.4639 12.4209 91.6338 12.4678 91.8037 12.5322C91.9795 12.5908 92.1494 12.6729 92.3135 12.7783C92.4775 12.8779 92.6357 13.0039 92.7881 13.1562L91.6367 15.2656ZM100.689 15.7842C100.689 16.0947 100.672 16.4287 100.637 16.7861C100.602 17.1436 100.549 17.5068 100.479 17.876C100.414 18.2451 100.335 18.6084 100.241 18.9658C100.153 19.3174 100.057 19.6426 99.9512 19.9414L101.823 21.2598L98.5098 21.1191L98.7119 20.0381C98.3604 20.4775 97.9531 20.8145 97.4902 21.0488C97.0332 21.2773 96.5029 21.415 95.8994 21.4619C95.4072 21.4971 94.9766 21.4619 94.6074 21.3564C94.2441 21.2568 93.9395 21.1016 93.6934 20.8906C93.4531 20.6738 93.2744 20.4102 93.1572 20.0996C93.04 19.7832 92.9814 19.4316 92.9814 19.0449C92.9814 18.6875 93.0693 18.3418 93.2451 18.0078C93.4209 17.668 93.6729 17.3691 94.001 17.1113C94.335 16.8535 94.7422 16.6484 95.2227 16.4961C95.7031 16.3379 96.248 16.2588 96.8574 16.2588C97.1387 16.2588 97.4609 16.2852 97.8242 16.3379C98.1934 16.3906 98.542 16.502 98.8701 16.6719C98.8408 16.3145 98.7852 15.9512 98.7031 15.582C98.627 15.207 98.5127 14.8672 98.3604 14.5625C98.208 14.2578 98.0088 14.0117 97.7627 13.8242C97.5225 13.6309 97.2207 13.5342 96.8574 13.5342C96.5469 13.5342 96.2451 13.5986 95.9521 13.7275C95.6592 13.8564 95.3838 14.041 95.126 14.2812C94.874 14.5215 94.6455 14.8145 94.4404 15.1602C94.2354 15.5059 94.0625 15.8955 93.9219 16.3291L93.1836 12.0225L94.2998 13.7363C94.5752 13.3965 94.8535 13.127 95.1348 12.9277C95.416 12.7227 95.6943 12.5674 95.9697 12.4619C96.251 12.3506 96.5205 12.2773 96.7783 12.2422C97.042 12.207 97.2939 12.1895 97.5342 12.1895C97.9854 12.2129 98.4014 12.3066 98.7822 12.4707C99.1689 12.6289 99.5029 12.8604 99.7842 13.165C100.065 13.4639 100.285 13.833 100.443 14.2725C100.607 14.7119 100.689 15.2158 100.689 15.7842ZM98.8701 18.5967C98.8818 18.4326 98.8906 18.2744 98.8965 18.1221C98.9023 17.9697 98.9053 17.8203 98.9053 17.6738V17.5684C98.6943 17.4863 98.4805 17.4248 98.2637 17.3838C98.0527 17.3369 97.8564 17.3047 97.6748 17.2871C97.4932 17.2637 97.3379 17.252 97.209 17.252C97.0859 17.2461 97.0039 17.2432 96.9629 17.2432C96.6289 17.2549 96.3389 17.3164 96.0928 17.4277C95.8467 17.5391 95.6416 17.6797 95.4775 17.8496C95.3193 18.0137 95.1992 18.1982 95.1172 18.4033C95.041 18.6084 95.0029 18.8105 95.0029 19.0098C95.0029 19.4609 95.1113 19.8037 95.3281 20.0381C95.5508 20.2666 95.873 20.3809 96.2949 20.3809C96.5762 20.3809 96.8428 20.3311 97.0947 20.2314C97.3467 20.1318 97.5811 20 97.7979 19.8359C98.0205 19.666 98.2197 19.4756 98.3955 19.2646C98.5771 19.0479 98.7354 18.8252 98.8701 18.5967ZM110.278 15.8018C110.278 16.1299 110.264 16.4756 110.234 16.8389C110.205 17.2021 110.161 17.5654 110.103 17.9287C110.044 18.292 109.971 18.6465 109.883 18.9922C109.801 19.3379 109.704 19.6543 109.593 19.9414L111.324 20.5039L106.745 21.4004L108.301 20.2314C108.424 19.7803 108.506 19.3467 108.547 18.9307C108.594 18.5146 108.617 18.1221 108.617 17.7529C108.617 17.5303 108.608 17.2783 108.591 16.9971C108.579 16.71 108.547 16.4199 108.494 16.127C108.447 15.834 108.377 15.5469 108.283 15.2656C108.195 14.9844 108.078 14.7354 107.932 14.5186C107.785 14.2959 107.604 14.1201 107.387 13.9912C107.176 13.8564 106.921 13.7891 106.622 13.7891C106.276 13.7891 105.925 13.9033 105.567 14.1318C105.21 14.3604 104.879 14.6973 104.574 15.1426V20.0029L106.024 21.04L101.674 21.3477L102.825 20.0732L103.44 13.6836L101.568 12.7607L104.574 12.4619V13.7891C104.744 13.5547 104.932 13.335 105.137 13.1299C105.342 12.9248 105.559 12.749 105.787 12.6025C106.016 12.4502 106.253 12.333 106.499 12.251C106.751 12.1631 107.009 12.1191 107.272 12.1191C107.782 12.1191 108.225 12.2129 108.6 12.4004C108.975 12.5879 109.285 12.8486 109.531 13.1826C109.783 13.5107 109.971 13.9004 110.094 14.3516C110.217 14.7969 110.278 15.2803 110.278 15.8018ZM115.174 12.3125C115.396 12.3125 115.622 12.333 115.851 12.374C116.079 12.4092 116.302 12.4648 116.519 12.541C116.741 12.6113 116.949 12.6992 117.143 12.8047C117.342 12.9043 117.521 13.0156 117.679 13.1387L119.12 11.3633L118.47 15.749C118.399 15.4443 118.276 15.1455 118.101 14.8525C117.925 14.5537 117.705 14.2871 117.441 14.0527C117.184 13.8184 116.885 13.6309 116.545 13.4902C116.205 13.3438 115.833 13.2705 115.429 13.2705C115.206 13.2705 114.992 13.2969 114.787 13.3496C114.582 13.3965 114.4 13.4756 114.242 13.5869C114.09 13.6982 113.967 13.8389 113.873 14.0088C113.785 14.1787 113.741 14.3809 113.741 14.6152C113.741 14.8965 113.817 15.125 113.97 15.3008C114.128 15.4766 114.333 15.626 114.585 15.749C114.837 15.8662 115.124 15.9688 115.446 16.0566C115.769 16.1387 116.1 16.2266 116.439 16.3203C116.779 16.4141 117.11 16.5254 117.433 16.6543C117.755 16.7773 118.042 16.9385 118.294 17.1377C118.546 17.3369 118.748 17.5859 118.9 17.8848C119.059 18.1777 119.138 18.541 119.138 18.9746C119.138 19.4609 119.041 19.877 118.848 20.2227C118.66 20.5625 118.417 20.8438 118.118 21.0664C117.819 21.2832 117.488 21.4414 117.125 21.541C116.762 21.6406 116.407 21.6904 116.062 21.6904C115.78 21.6904 115.499 21.6611 115.218 21.6025C114.937 21.5439 114.664 21.4619 114.4 21.3564C114.137 21.251 113.885 21.125 113.645 20.9785C113.41 20.832 113.196 20.6738 113.003 20.5039L111.667 22.2881L112.08 17.9287C112.268 18.3271 112.493 18.6992 112.757 19.0449C113.021 19.3906 113.313 19.6924 113.636 19.9502C113.958 20.2021 114.304 20.4014 114.673 20.5479C115.042 20.6885 115.426 20.7588 115.824 20.7588C116.287 20.7588 116.656 20.6621 116.932 20.4688C117.213 20.2695 117.354 19.9883 117.354 19.625C117.354 19.3906 117.274 19.1973 117.116 19.0449C116.964 18.8867 116.759 18.749 116.501 18.6318C116.249 18.5146 115.962 18.4092 115.64 18.3154C115.317 18.2217 114.986 18.1191 114.646 18.0078C114.307 17.8965 113.976 17.7676 113.653 17.6211C113.331 17.4688 113.041 17.2812 112.783 17.0586C112.531 16.8301 112.326 16.5547 112.168 16.2324C112.016 15.9043 111.939 15.5088 111.939 15.0459C111.939 14.6475 111.998 14.3018 112.115 14.0088C112.232 13.7158 112.385 13.4697 112.572 13.2705C112.766 13.0654 112.979 12.9014 113.214 12.7783C113.454 12.6494 113.694 12.5527 113.935 12.4883C114.175 12.418 114.403 12.3711 114.62 12.3477C114.837 12.3242 115.021 12.3125 115.174 12.3125Z" fill="#1C1C1C"/>
<path d="M2.27845 26.3594H7.89649V29.5677H2.27845V26.3594ZM2.27845 26.3594V3.50988C2.27845 1.88399 9.5006 1.25977 13.5 1.25977C17.4486 1.25977 24.7215 1.88399 24.7215 3.50988V26.3594M2.27845 26.3594H24.7215M24.7215 26.3594H19.1035V29.5677H24.7215V26.3594ZM1.37115 5.97775H2.24216V11.741C1.7737 11.7333 1.32736 11.5403 1.00086 11.2043C0.674363 10.8683 0.494314 10.4166 0.500137 9.94812V6.86328C0.500106 6.63092 0.591407 6.40785 0.754349 6.24219C0.917291 6.07654 1.13882 5.98156 1.37115 5.97775ZM25.6288 5.97775H24.7578V11.741C25.2263 11.7333 25.6726 11.5403 25.9991 11.2043C26.3256 10.8683 26.5057 10.4166 26.4999 9.94812V6.86328C26.4999 6.63092 26.4086 6.40785 26.2456 6.24219C26.0827 6.07654 25.8612 5.98156 25.6288 5.97775ZM13.5 4.33008C17.4631 4.33008 20.4149 4.62768 22.3553 5.22287C22.4946 5.27154 22.6158 5.36152 22.7027 5.48083C22.7896 5.60014 22.8381 5.7431 22.8416 5.89065V18.23C22.8416 18.4225 22.7651 18.6071 22.629 18.7432C22.4929 18.8794 22.3083 18.9558 22.1158 18.9558H4.89149C4.69899 18.9558 4.51436 18.8794 4.37824 18.7432C4.24212 18.6071 4.16565 18.4225 4.16565 18.23V5.89065C4.1692 5.7431 4.21765 5.60014 4.30454 5.48083C4.39143 5.36152 4.51262 5.27154 4.65196 5.22287C6.58755 4.62768 9.53689 4.33008 13.5 4.33008ZM5.94397 20.8575C6.42523 20.8575 6.88678 21.0487 7.22709 21.389C7.56739 21.7293 7.75858 22.1909 7.75858 22.6722C7.75858 23.1534 7.56739 23.615 7.22709 23.9553C6.88678 24.2956 6.42523 24.4868 5.94397 24.4868C5.46973 24.4791 5.01785 24.2839 4.68727 23.9438C4.35669 23.6037 4.17434 23.1464 4.18017 22.6722C4.17434 22.1979 4.35669 21.7407 4.68727 21.4005C5.01785 21.0604 5.46973 20.8652 5.94397 20.8575ZM21.0923 20.8575C21.5736 20.8575 22.0351 21.0487 22.3755 21.389C22.7158 21.7293 22.9069 22.1909 22.9069 22.6722C22.9069 23.1534 22.7158 23.615 22.3755 23.9553C22.0351 24.2956 21.5736 24.4868 21.0923 24.4868C20.8557 24.4858 20.6215 24.438 20.4034 24.3461C20.1853 24.2543 19.9875 24.1201 19.8215 23.9514C19.6555 23.7827 19.5246 23.5828 19.4362 23.3633C19.3479 23.1437 19.3039 22.9088 19.3068 22.6722C19.3039 22.4355 19.3479 22.2006 19.4362 21.9811C19.5246 21.7615 19.6555 21.5616 19.8215 21.3929C19.9875 21.2242 20.1853 21.0901 20.4034 20.9982C20.6215 20.9063 20.8557 20.8585 21.0923 20.8575Z" stroke="#1C1C1C" stroke-width="0.725844" stroke-linecap="round" stroke-linejoin="round"/>
</svg>
